<svg width="209" height="195" viewBox="0 0 209 195" fill="none" xmlns="http://www.w3.org/2000/svg">
<g clip-path="url(#clip0)">
<path d="M75.383 156.787C73.9299 157.04 73.2951 157.676 73.4771 158.691C73.6582 159.706 74.4746 160.045 75.9258 159.706C77.3789 159.368 78.0133 158.774 77.8307 157.929C77.6506 156.998 76.8342 156.617 75.383 156.787Z" fill="#DB202C"/>
<path d="M67.6266 157.804C66.1749 157.804 65.4495 158.267 65.4495 159.199C65.4495 160.3 66.2211 160.764 67.7624 160.595C69.2141 160.595 69.9404 160.129 69.9404 159.199C69.9404 158.101 69.1688 157.633 67.6266 157.804Z" fill="#DB202C"/>
<path d="M57.0135 157.42C56.6513 158.351 57.2413 158.985 58.7821 159.325C60.1427 159.83 61.0049 159.577 61.3671 158.563C61.6397 157.633 61.0497 156.957 59.5985 156.531C58.2373 156.194 57.3761 156.486 57.0135 157.42Z" fill="#DB202C"/>
<path d="M197.502 10.7266C189.836 3.57597 180.609 0 169.812 0H39.1873C28.3935 0 19.1626 3.57597 11.4967 10.7266C3.8327 17.8785 0 26.4911 0 36.5623V158.439C0 168.51 3.8327 177.122 11.4967 184.273C19.1621 191.424 28.3935 195 39.1873 195H69.6663C71.6604 195 73.1583 194.936 74.1558 194.812C75.1528 194.684 76.1498 194.133 77.1483 193.159C78.1472 192.187 78.6447 190.769 78.6447 188.907C78.6447 188.655 78.6209 185.774 78.5761 180.273C78.5299 174.771 78.5075 170.412 78.5075 167.196L75.3777 167.704C73.3823 168.042 70.865 168.191 67.8258 168.148C64.788 168.106 61.6349 167.81 58.3698 167.26C55.1028 166.709 52.0651 165.44 49.2527 163.453C46.4418 161.462 44.4464 158.86 43.2668 155.645L41.9057 152.723C40.9988 150.778 39.5709 148.619 37.6202 146.251C35.6696 143.88 33.697 142.272 31.7015 141.426L30.7488 140.791C30.1145 140.368 29.525 139.858 28.9802 139.266C28.4364 138.673 28.0285 138.079 27.7564 137.489C27.4842 136.895 27.7101 136.408 28.4364 136.026C29.1628 135.646 30.4767 135.458 32.3826 135.458L35.1029 135.838C36.9178 136.176 39.1615 137.19 41.839 138.884C44.5145 140.577 46.714 142.777 48.4378 145.484C50.5252 148.955 53.0402 151.598 55.9898 153.418C58.937 155.24 61.9085 156.15 64.9014 156.15C67.8944 156.15 70.4794 155.938 72.6574 155.517C74.833 155.093 76.8742 154.456 78.7801 153.61C79.5965 147.94 81.8193 143.579 85.4466 140.533C80.2766 140.024 75.628 139.263 71.4993 138.247C67.373 137.23 63.109 135.581 58.7101 133.295C54.3093 131.01 50.6587 128.176 47.7558 124.789C44.8534 121.401 42.4714 116.958 40.6132 111.459C38.754 105.956 37.8242 99.6077 37.8242 92.4144C37.8242 82.1743 41.4086 73.4554 48.5746 66.2621C45.2175 58.5606 45.5344 49.9288 49.5263 40.3641C52.1571 39.602 56.0584 40.1738 61.2284 42.0783C66.3994 43.9841 70.1853 45.6138 72.5902 46.966C74.995 48.3187 76.9219 49.4623 78.3736 50.3944C86.8115 48.1937 95.5192 47.0936 104.499 47.0936C113.478 47.0936 122.188 48.1937 130.626 50.3944L135.796 47.3475C139.336 45.3154 143.508 43.4536 148.316 41.7617C153.124 40.0693 156.797 39.6033 159.338 40.3655C163.418 49.9301 163.783 58.5619 160.424 66.263C167.59 73.4571 171.175 82.1756 171.175 92.4157C171.175 99.6103 170.245 105.98 168.386 111.522C166.529 117.066 164.126 121.511 161.176 124.854C158.228 128.197 154.554 131.009 150.155 133.296C145.755 135.58 141.492 137.233 137.363 138.246C133.236 139.263 128.588 140.027 123.417 140.535C128.131 144.342 130.489 150.349 130.489 158.56V188.903C130.489 190.343 130.714 191.505 131.168 192.394C131.624 193.283 132.349 193.895 133.346 194.236C134.348 194.574 135.228 194.785 136.001 194.869C136.774 194.954 137.883 194.996 139.335 194.996H169.814C180.608 194.996 189.839 191.42 197.501 184.269C205.167 177.117 209 168.503 209 158.433V36.5623C208.999 26.4911 205.166 17.8772 197.502 10.7266Z" fill="#DB202C"/>
<path d="M41.3643 141.934C40.73 142.355 40.8205 143.032 41.6369 143.964C42.5453 144.809 43.2702 144.937 43.8149 144.344C44.4492 143.922 44.3587 143.245 43.5409 142.312C42.6344 141.552 41.909 141.424 41.3643 141.934Z" fill="#DB202C"/>
<path d="M36.8753 138.76C36.6037 139.353 36.9211 139.862 37.828 140.283C38.5529 140.708 39.1444 140.624 39.5966 140.031C39.8683 139.437 39.5509 138.929 38.6439 138.504C37.737 138.25 37.1475 138.335 36.8753 138.76Z" fill="#DB202C"/>
<path d="M45.5835 146.885C44.7662 147.307 44.7662 148.071 45.5835 149.17C46.3999 150.272 47.1696 150.567 47.8964 150.058C48.7133 149.465 48.7133 148.661 47.8964 147.645C47.1715 146.547 46.3999 146.29 45.5835 146.885Z" fill="#DB202C"/>
<path d="M50.347 152.596C49.5301 153.275 49.7103 154.076 50.8913 155.01C51.9783 156.023 52.8858 156.151 53.6116 155.387C54.3379 154.712 54.1563 153.908 53.0673 152.977C51.9803 151.963 51.0728 151.835 50.347 152.596Z" fill="#DB202C"/>
</g>
<defs>
<clipPath id="clip0">
<rect width="209" height="195" fill="white"/>
</clipPath>
</defs>
</svg>
