<svg width="197" height="195" viewBox="0 0 197 195" fill="none" xmlns="http://www.w3.org/2000/svg">
<g clip-path="url(#clip0)">
<path d="M182.792 0H14.2078C6.36066 0 0 6.29608 0 14.0635V180.936C0 188.704 6.36066 195 14.2078 195H182.792C190.639 195 197 188.704 197 180.936V14.0635C197 6.29608 190.639 0 182.792 0V0ZM69.877 147.393H45.8878V75.9532H69.877V147.393ZM57.8832 66.1981H57.7269C49.6768 66.1981 44.4705 60.7129 44.4705 53.8574C44.4705 46.8472 49.8362 41.5137 58.0425 41.5137C66.2488 41.5137 71.2989 46.8472 71.4552 53.8574C71.4552 60.7129 66.2488 66.1981 57.8832 66.1981ZM156.377 147.393H132.391V109.174C132.391 99.5694 128.918 93.019 120.238 93.019C113.611 93.019 109.664 97.4375 107.93 101.703C107.296 103.229 107.141 105.363 107.141 107.498V147.393H83.153C83.153 147.393 83.4671 82.6554 83.153 75.9532H107.141V86.0683C110.329 81.2004 116.032 74.2765 128.76 74.2765C144.543 74.2765 156.377 84.4868 156.377 106.429V147.393Z" fill="#DB202C"/>
</g>
<defs>
<clipPath id="clip0">
<rect width="197" height="195" fill="white"/>
</clipPath>
</defs>
</svg>
